<?xml version="1.0" encoding="UTF-8"?>
<svg width="224px" height="70px" viewBox="0 0 224 70" version="1.1" xmlns="http://www.w3.org/2000/svg" xmlns:xlink="http://www.w3.org/1999/xlink">
    <title>byx logo</title>
    <defs>
        <polygon id="path-1" points="0.000190998468 0.356359649 38.3186257 0.356359649 38.3186257 59.6092122 0.000190998468 59.6092122"></polygon>
        <polygon id="path-3" points="0.000190998468 0.356359649 38.3186257 0.356359649 38.3186257 59.6092122 0.000190998468 59.6092122"></polygon>
        <polygon id="path-5" points="0.461208577 0.241349903 17.7897904 0.241349903 17.7897904 23.8233674 0.461208577 23.8233674"></polygon>
    </defs>
    <g id="Styleguide" stroke="none" stroke-width="1" fill="none" fill-rule="evenodd">
        <g id="1.1-styleguide" transform="translate(-24.000000, -24.000000)">
            <g id="byx-logo" transform="translate(24.000000, 24.000000)">
                <g id="Group-4" transform="translate(29.221439, 34.819391) rotate(-14.000000) translate(-29.221439, -34.819391) translate(6.721439, 4.819391)">
                    <g id="Group-27-Copy" transform="translate(24.710526, 30.000000) scale(-1, 1) translate(-24.710526, -30.000000) translate(5.210526, -0.000000)">
                        <mask id="mask-2" fill="white">
                            <use xlink:href="#path-1"></use>
                        </mask>
                        <g id="Clip-26"></g>
                        <path d="M37.7622807,27.2277412 C37.4015351,26.3549342 36.8664474,25.5380482 36.1548246,24.8297149 C36.1537281,24.8286184 36.1526316,24.8286184 36.1515351,24.8286184 L35.3072368,23.9854167 L29.6986842,18.3801535 L26.5078947,15.2069079 L13.9673246,2.7310307 C10.7557018,-0.463048246 5.55723684,-0.43125 2.38618421,2.80230263 L2.36864035,2.82094298 C-0.817763158,6.06875 -0.784868421,11.2803728 2.44210526,14.4887061 L15.2546053,27.2277412 C16.8149123,28.7781798 16.8192982,31.3012061 15.2644737,32.8593202 L15.2633772,32.8604167 L2.48486842,45.6652412 C-0.780482456,48.9404605 -0.704824561,54.2792763 2.69868421,57.4678728 C5.99035088,60.5512061 11.2260965,60.2178728 14.4114035,57.0270833 L26.5078947,44.9053728 L29.7546053,41.6520833 L35.3598684,36.0599781 L36.1822368,35.2080044 C36.8752193,34.5139254 37.3960526,33.7123904 37.7524123,32.8604167 C38.5035088,31.0621711 38.5078947,29.0281798 37.7622807,27.2277412" id="Fill-25" fill="#1BD741" mask="url(#mask-2)"></path>
                    </g>
                    <g id="Group-27" transform="translate(0.000000, -0.000000)">
                        <mask id="mask-4" fill="white">
                            <use xlink:href="#path-3"></use>
                        </mask>
                        <g id="Clip-26"></g>
                        <path d="M37.7622807,27.2277412 C37.4015351,26.3549342 36.8664474,25.5380482 36.1548246,24.8297149 C36.1537281,24.8286184 36.1526316,24.8286184 36.1515351,24.8286184 L35.3072368,23.9854167 L29.6986842,18.3801535 L26.5078947,15.2069079 L13.9673246,2.7310307 C10.7557018,-0.463048246 5.55723684,-0.43125 2.38618421,2.80230263 L2.36864035,2.82094298 C-0.817763158,6.06875 -0.784868421,11.2803728 2.44210526,14.4887061 L15.2546053,27.2277412 C16.8149123,28.7781798 16.8192982,31.3012061 15.2644737,32.8593202 L15.2633772,32.8604167 L2.48486842,45.6652412 C-0.780482456,48.9404605 -0.704824561,54.2792763 2.69868421,57.4678728 C5.99035088,60.5512061 11.2260965,60.2178728 14.4114035,57.0270833 L26.5078947,44.9053728 L29.7546053,41.6520833 L35.3598684,36.0599781 L36.1822368,35.2080044 C36.8752193,34.5139254 37.3960526,33.7123904 37.7524123,32.8604167 C38.5035088,31.0621711 38.5078947,29.0281798 37.7622807,27.2277412" id="Fill-25" fill="#FFFFFF" mask="url(#mask-4)"></path>
                    </g>
                </g>
                <g id="Group-22" transform="translate(67.411731, 20.263158)">
                    <g id="Group-3" transform="translate(0.000000, -0.002303)" fill="#FFFFFF">
                        <path d="M11.0093933,19.0350024 C12.9632188,19.0350024 14.0710404,18.0909235 14.0710404,16.39721 C14.0710404,14.6378289 13.0612939,13.7585648 11.0093933,13.7585648 L6.17813109,13.7585648 C5.80544591,13.7585648 5.50439815,14.0604654 5.50439815,14.4331506 L5.50439815,18.3604167 C5.50439815,18.7331019 5.80544591,19.0350024 6.17813109,19.0350024 L11.0093933,19.0350024 Z M5.50439815,5.31302388 L5.50439815,8.91536306 C5.50439815,9.28719542 5.80544591,9.589096 6.17813109,9.589096 L10.6512061,9.589096 C12.3440668,9.589096 13.3222588,8.61175682 13.3222588,7.04852583 C13.3222588,5.58336988 12.3440668,4.63843811 10.6512061,4.63843811 L6.17813109,4.63843811 C5.80544591,4.63843811 5.50439815,4.94033869 5.50439815,5.31302388 L5.50439815,5.31302388 Z M19.7380726,16.6897295 C19.7380726,20.8591983 16.9373904,23.4321759 11.335173,23.4321759 L0.673988791,23.4321759 C0.301303606,23.4321759 0.000255847953,23.1302753 0.000255847953,22.758443 L0.000255847953,0.914997563 C0.000255847953,0.543165205 0.301303606,0.24126462 0.673988791,0.24126462 L11.0093933,0.24126462 C16.3514985,0.24126462 18.7939937,2.7818348 18.7939937,6.1692617 C18.7939937,8.0608309 18.0972344,9.49528509 16.7199196,10.488828 C16.3404118,10.7625853 16.3617325,11.3527412 16.7651194,11.5889742 C18.6728923,12.7070297 19.7380726,14.6634137 19.7380726,16.6897295 L19.7380726,16.6897295 Z" id="Fill-1"></path>
                    </g>
                    <path d="M33.67846,15.0267178 C33.67846,11.899403 32.3429337,10.3037646 30.0300682,10.3037646 C27.6847953,10.3037646 26.349269,11.899403 26.349269,15.0267178 C26.349269,18.1540327 27.6847953,19.7496711 30.0300682,19.7496711 C32.3429337,19.7496711 33.67846,18.1540327 33.67846,15.0267178 M23.6134016,21.4101243 C22.0169103,19.8144859 21.2033138,17.6977705 21.2033138,15.0267178 C21.2033138,12.3556652 22.0169103,10.2056896 23.6134016,8.61005117 C25.20904,7.01355994 27.3266082,6.23151803 30.0300682,6.23151803 C32.7011209,6.23151803 34.8502437,7.01355994 36.4467349,8.61005117 C38.0423733,10.2056896 38.8244152,12.3556652 38.8244152,15.0267178 C38.8244152,17.6977705 38.0423733,19.8144859 36.4467349,21.4101243 C34.8502437,23.0066155 32.7011209,23.8210648 30.0300682,23.8210648 C27.3266082,23.8210648 25.20904,23.0066155 23.6134016,21.4101243" id="Fill-4" fill="#FFFFFF"></path>
                    <path d="M51.2005482,16.8181652 L51.2005482,15.5798611 C50.9071759,15.9056408 50.3212841,16.1341983 49.5076876,16.2322734 L47.4225268,16.4599781 C45.7936282,16.6228679 44.9791788,17.3068348 44.9791788,18.4794712 C44.9791788,19.6521077 45.8917032,20.4008894 47.4549342,20.4008894 C49.6373173,20.4008894 51.2005482,19.2930677 51.2005482,16.8181652 L51.2005482,16.8181652 Z M52.1778874,23.4301291 C51.8870736,23.4301291 51.6252558,23.2484771 51.5348562,22.9713085 C51.4069323,22.5824196 51.3216496,22.1091009 51.2986233,21.5411184 C50.1583942,23.071942 48.3674586,23.8207237 45.9241106,23.8207237 C42.2757188,23.8207237 39.8008163,21.931713 39.8008163,18.6747685 C39.8008163,15.6455288 41.7230872,13.8213328 46.3803728,13.4307383 L49.0181652,13.2021808 C50.484174,13.0392909 51.2005482,12.5838816 51.2005482,11.5417276 C51.2005482,10.4014985 50.3545443,9.84801413 48.6275707,9.84801413 C46.8076389,9.84801413 46.0119518,10.2573709 45.7424586,11.5331993 C45.6767909,11.8410697 45.4030336,12.0628046 45.0883406,12.0628046 L41.3811038,12.0628046 C40.957249,12.0628046 40.6417032,11.6739157 40.7150463,11.2568835 C41.3043494,7.91550926 43.9438475,6.23202973 48.6599781,6.23202973 C53.6438962,6.23202973 56.152059,7.95815058 56.152059,11.4112451 L56.152059,20.3360746 C56.152059,21.223867 56.2433114,21.9666788 56.4266691,22.5585404 C56.5605629,22.993482 56.2424586,23.4301291 55.7870492,23.4301291 L52.1778874,23.4301291 Z" id="Fill-6" fill="#FFFFFF"></path>
                    <path d="M67.1385112,10.336172 L65.2614401,10.336172 C64.8887549,10.336172 64.5877071,10.6380726 64.5877071,11.0107578 L64.5877071,18.1864401 C64.5877071,19.3590765 65.1079313,19.651596 66.5091252,19.651596 L67.1385112,19.651596 C67.5111964,19.651596 67.8122442,19.9534966 67.8122442,20.3261818 L67.8122442,22.8258163 C67.8122442,23.1797393 67.5410453,23.4697003 67.188828,23.4995492 C66.6634868,23.5438962 66.0903874,23.5600999 65.4669712,23.5600999 C61.265095,23.5600999 59.5065668,22.1597588 59.5065668,18.7399245 L59.5065668,11.0107578 C59.5065668,10.6380726 59.2046662,10.336172 58.8328338,10.336172 L57.6712841,10.336172 C57.2994518,10.336172 56.9975512,10.0342714 56.9975512,9.66158626 L56.9975512,7.29755117 C56.9975512,6.92486598 57.2994518,6.6229654 57.6712841,6.6229654 L58.8328338,6.6229654 C59.2046662,6.6229654 59.5065668,6.32106481 59.5065668,5.94837963 L59.5065668,2.31363304 C59.5065668,1.94180068 59.8076145,1.6399001 60.1802997,1.6399001 L63.9139742,1.6399001 C64.2858065,1.6399001 64.5877071,1.94180068 64.5877071,2.31363304 L64.5877071,5.94837963 C64.5877071,6.32106481 64.8887549,6.6229654 65.2614401,6.6229654 L67.1385112,6.6229654 C67.5111964,6.6229654 67.8122442,6.92486598 67.8122442,7.29755117 L67.8122442,9.66158626 C67.8122442,10.0342714 67.5111964,10.336172 67.1385112,10.336172" id="Fill-8" fill="#FFFFFF"></path>
                    <path d="M81.3367934,6.6229654 L85.1344298,6.6229654 C85.5992203,6.6229654 85.9241472,7.08093324 85.7714912,7.51928606 L79.9935916,24.0811769 C79.2439571,26.2311525 78.2990253,27.7295687 77.0939815,28.5764254 C75.8889376,29.4232822 74.0655945,29.8462841 71.6222466,29.8462841 C71.1983918,29.8462841 70.7429825,29.8309332 70.278192,29.8113182 C69.9182992,29.7959673 69.6351608,29.4983309 69.6351608,29.1375853 L69.6351608,26.5466983 C69.6351608,26.174866 69.9370614,25.8729654 70.3088938,25.8729654 L71.2632066,25.8729654 C72.9577729,25.8729654 73.8046296,25.0909235 73.8046296,23.5276925 C73.8046296,22.8437256 73.5436647,21.7367568 73.0225877,20.2707481 L68.5196637,7.52184454 C68.3644493,7.08263889 68.690229,6.6229654 69.1550195,6.6229654 L73.1795078,6.6229654 C73.4737329,6.6229654 73.733845,6.81399854 73.8216862,7.09457846 L74.4237817,9.00064571 C75.2749025,11.8635843 76.0066277,14.5192861 76.629191,16.9447247 C76.8048733,17.6227217 77.7651559,17.6210161 77.9357212,16.9404605 C78.5489035,14.4954069 79.259308,11.8593202 80.0908138,9.03305312 L80.6929094,7.09713694 C80.7807505,6.81485136 81.0408626,6.6229654 81.3367934,6.6229654" id="Fill-10" fill="#FFFFFF"></path>
                    <path d="M96.994944,16.8181652 L96.994944,15.5798611 C96.7015716,15.9056408 96.1156798,16.1341983 95.3020833,16.2322734 L93.2169225,16.4599781 C91.5880239,16.6228679 90.7735746,17.3068348 90.7735746,18.4794712 C90.7735746,19.6521077 91.6860989,20.4008894 93.2493299,20.4008894 C95.431713,20.4008894 96.994944,19.2930677 96.994944,16.8181652 L96.994944,16.8181652 Z M97.9722831,23.4301291 C97.6814693,23.4301291 97.4196516,23.2484771 97.3292519,22.9713085 C97.201328,22.5824196 97.1160453,22.1091009 97.093019,21.5411184 C95.95279,23.071942 94.1618543,23.8207237 91.7185063,23.8207237 C88.0701145,23.8207237 85.595212,21.931713 85.595212,18.6747685 C85.595212,15.6455288 87.5174829,13.8213328 92.1747685,13.4307383 L94.8125609,13.2021808 C96.2785697,13.0392909 96.994944,12.5838816 96.994944,11.5417276 C96.994944,10.4014985 96.1489401,9.84801413 94.4219664,9.84801413 C92.6020346,9.84801413 91.8063475,10.2573709 91.5368543,11.5331993 C91.4711866,11.8410697 91.1974293,12.0628046 90.8827364,12.0628046 L87.1754995,12.0628046 C86.7516447,12.0628046 86.4360989,11.6739157 86.509442,11.2568835 C87.0987451,7.91550926 89.7382432,6.23202973 94.4543738,6.23202973 C99.4382919,6.23202973 101.946455,7.95815058 101.946455,11.4112451 L101.946455,20.3360746 C101.946455,21.223867 102.037707,21.9666788 102.221065,22.5585404 C102.354959,22.993482 102.036854,23.4301291 101.581445,23.4301291 L97.9722831,23.4301291 Z" id="Fill-12" fill="#FFFFFF"></path>
                    <path d="M115.169189,6.42766813 L115.169189,10.3788134 C115.169189,10.7506457 114.867288,11.0525463 114.495456,11.0525463 L113.866923,11.0525463 C110.902498,11.0525463 109.404081,12.5833699 109.404081,15.6134625 L109.404081,22.7558845 C109.404081,23.1285697 109.103034,23.4304703 108.730348,23.4304703 L104.996674,23.4304703 C104.624842,23.4304703 104.322941,23.1285697 104.322941,22.7558845 L104.322941,7.29755117 C104.322941,6.92486598 104.624842,6.6229654 104.996674,6.6229654 L108.600719,6.6229654 C108.972551,6.6229654 109.274452,6.92486598 109.274452,7.29755117 C109.274452,7.89964669 110.012147,8.20410575 110.424915,7.7649001 C111.30162,6.83276072 112.51434,6.36200049 114.06222,6.36200049 C114.322332,6.36200049 114.681372,6.39526072 115.169189,6.42766813" id="Fill-14" fill="#FFFFFF"></path>
                    <g id="Group-18" transform="translate(115.131579, -0.002303)">
                        <mask id="mask-6" fill="white">
                            <use xlink:href="#path-5"></use>
                        </mask>
                        <g id="Clip-17"></g>
                        <path d="M12.8058723,15.0290205 C12.8058723,11.8692982 11.6008285,10.3060673 9.19074074,10.3060673 C6.94269006,10.3060673 5.60801657,11.9997807 5.60801657,15.1586501 C5.60801657,18.2211501 6.81306043,19.7519737 9.19074074,19.7519737 C11.6008285,19.7519737 12.8058723,18.1887427 12.8058723,15.0290205 M13.382383,0.241008772 L17.1160575,0.241008772 C17.4878899,0.241008772 17.7897904,0.542909357 17.7897904,0.915594542 L17.7897904,22.7581871 C17.7897904,23.1308723 17.4878899,23.4327729 17.1160575,23.4327729 L13.5120127,23.4327729 C13.1401803,23.4327729 12.8382797,23.1308723 12.8382797,22.7581871 L12.8382797,21.249537 C11.6980507,22.9765107 10.0051901,23.8233674 7.78954678,23.8233674 C5.54234893,23.8233674 3.75141326,23.0413255 2.44744152,21.4456871 C1.11276803,19.8491959 0.461208577,17.7324805 0.461208577,15.0290205 C0.461208577,12.3255604 1.11276803,10.2079922 2.44744152,8.6123538 C3.75141326,7.01586257 5.54234893,6.23382066 7.78954678,6.23382066 C9.29734405,6.23382066 10.5740253,6.64744152 11.5957115,7.46189084 C12.0468567,7.8209308 12.7086501,7.53011696 12.7086501,6.95360624 L12.7086501,0.915594542 C12.7086501,0.542909357 13.0096979,0.241008772 13.382383,0.241008772" id="Fill-16" fill="#FFFFFF" mask="url(#mask-6)"></path>
                    </g>
                    <g id="Group-21" transform="translate(133.654971, -0.002303)" fill="#FFFFFF">
                        <path d="M14.2330775,11.9179946 L21.2859527,22.3821759 C21.5870005,22.829057 21.2663377,23.4320054 20.7256457,23.4320054 L15.9711379,23.4320054 C15.7451389,23.4320054 15.5344907,23.3194323 15.4099781,23.1309576 L13.6872685,20.5341009 C12.7909479,19.2002802 11.9935551,17.9670931 11.2660941,16.8200414 C11.0017178,16.4030093 10.3936525,16.4030093 10.1301291,16.8208942 C9.52462232,17.7811769 8.71528996,19.0152169 7.72686404,20.5341009 L6.00586014,23.1309576 C5.88049464,23.3194323 5.66984649,23.4320054 5.44299464,23.4320054 L0.827497563,23.4320054 C0.285952729,23.4320054 -0.0338572125,22.8256457 0.270601852,22.3787646 L7.34138645,12.0160697 C7.49660088,11.7892178 7.49830653,11.4915814 7.34650341,11.2638767 L0.734539474,1.28751218 C0.436903021,0.839778265 0.758418616,0.241094055 1.29569932,0.241094055 L6.02632797,0.241094055 C6.25488548,0.241094055 6.46723928,0.356225634 6.59089912,0.547258772 L8.1311038,2.91385234 C8.1438962,2.93432018 8.15157164,2.94881823 8.16351121,2.97099172 C8.26670322,3.16799464 8.97540205,4.28690302 10.2708455,6.32601121 C10.5377802,6.74645468 11.1594907,6.7438962 11.4204557,6.32089425 C12.3235989,4.85659113 13.0425317,3.73086014 13.5576389,2.94455409 L15.1490132,0.542994639 C15.2743787,0.354519981 15.4850268,0.241094055 15.710173,0.241094055 L20.24721,0.241094055 C20.7853436,0.241094055 21.1068592,0.840631092 20.8075171,1.28921784 L14.230519,11.1675073 C14.0795687,11.395212 14.0804215,11.6911428 14.2330775,11.9179946" id="Fill-19"></path>
                    </g>
                </g>
            </g>
        </g>
    </g>
</svg>